<?xml version="1.0" standalone="no"?><!DOCTYPE svg PUBLIC "-//W3C//DTD SVG 1.1//EN" "http://www.w3.org/Graphics/SVG/1.1/DTD/svg11.dtd"><svg t="1741577740113" class="icon" viewBox="0 0 1024 1024" version="1.1" xmlns="http://www.w3.org/2000/svg" p-id="2371" xmlns:xlink="http://www.w3.org/1999/xlink" width="200" height="200"><path d="M486.318 888.881a3.195 3.195 0 0 1-2.261 0.933 3.194 3.194 0 0 1-2.274-0.946c-0.041-0.041-0.053-0.096-0.091-0.138l5.616 13.987c0.128 0.319 0.241 0.645 0.34 0.976 2.745 9.205 10.616 10.553 13.871 10.706 2.622 0.109 5.681-0.438 8.603-1.805l-13.595-33.862-10.209 10.149zM430.268 713.701l-28.534-71.07-8.955 12.916 36.142 60.122zM432.555 721.715l2.801 4.659-2.215-5.516zM493.931 872.269l-8.93-22.241-12.307 16.293 8.168 20.344a3.183 3.183 0 0 1 0.933-2.331l12.136-12.065z" fill="#C0FFFF" p-id="2372"></path><path d="M308.288 517.085c-0.129-0.322-0.164-0.661-0.262-0.99-23.523-11.655-40.131-34.88-41.716-62.231l-0.042-0.791c-0.42-8.868 2.646-38.627 21.596-58.494 8.354-8.76 18.637-14.544 30.623-17.443a59.88 59.88 0 0 1-1.945-4.585C167.153 419.272 64.114 518.196 64.114 632.683c0 150.814 178.805 274.607 406.827 287.652a37.905 37.905 0 0 1-4.643-9.692l-158.01-393.558z" fill="#C0FFFF" p-id="2373"></path><path d="M316.435 464.662l18.273-38.504c10.892-10.944 25.76-17.861 42.228-18.481-3.034-3.087-5.642-6.594-7.806-10.389h-28.279c-0.44 0-0.883-0.025-1.319 0.027a11.16 11.16 0 0 1-1.314 0.077c-0.11 0-0.216-0.029-0.325-0.032a11.67 11.67 0 0 1-0.682 0.026c-14.042 0-24.819 4.095-32.943 12.518-15.511 16.079-15.586 41.862-15.578 42.113l0.027 0.506c1.197 20.653 14.732 37.934 33.434 45.314-3.828-8.167-6.028-17.25-6.028-26.869 0.001-2.129 0.107-4.232 0.312-6.306zM364.376 359.77a610.656 610.656 0 0 0-26.221 6.479 38.584 38.584 0 0 0 5.042 8.591h19.493c-0.029-0.688-0.104-1.365-0.104-2.059-0.001-4.51 0.658-8.858 1.79-13.011zM458.753 784.65l-11.992 17.077 23.145 57.647 12.306-16.293zM450.404 763.854l-21.834-36.321-7.311 10.676 22.651 56.417 11.992-17.077zM393.65 669.444l24.736 61.609 6.55-9.565zM376.388 579.503l-9.003 13.318a3.208 3.208 0 0 1-2.661 1.411c-0.486 0-0.966-0.145-1.421-0.373l15.298 38.104 10.552 17.554 9.717-14.016-22.482-55.998zM358.285 534.412h21.284c-12.768 0-24.628-3.802-34.578-10.286H335.307l26.445 65.867c0.09-0.26 0.158-0.526 0.319-0.764l11.433-16.912-15.219-37.905zM726.008 379.548a49.282 49.282 0 0 1-4.572 14.966 74.366 74.366 0 0 1 14.899 19.021c21.643 10.077 36.654 31.996 36.654 57.431 0 17.5-7.124 33.4-18.584 44.861-11.461 11.461-27.361 18.585-44.861 18.585h18.707L573.263 918.671c217.142-19.64 384.262-140.186 384.262-285.988 0-109.062-93.514-203.991-231.517-253.135z" fill="#C0FFFF" p-id="2374"></path><path d="M723.624 502.255a74.478 74.478 0 0 1-25.247 16.596l-6.277 15.561h17.444c17.5 0 33.4-7.124 44.861-18.585 11.46-11.46 18.584-27.36 18.584-44.861 0-25.435-15.011-47.354-36.654-57.431 5.838 10.655 9.161 22.891 9.161 35.922 0.001 19.943-7.766 38.692-21.872 52.798zM641.687 524.127l-7.223 10.285h33.43l4.148-10.285h-1.215zM563.858 529.971l-3.042 4.441h5.825z" fill="#F9E2B1" p-id="2375"></path><path d="M670.827 501.677c13.946 0 27.059-5.432 36.925-15.298 9.862-9.864 15.296-22.977 15.296-36.922 0-17.186-8.253-32.392-21.068-41.884a51.935 51.935 0 0 0-28.964-10.191 10.92 10.92 0 0 1-0.864-0.067c-0.438-0.05-0.88-0.025-1.325-0.027H369.131c2.163 3.794 4.772 7.301 7.806 10.389-16.467 0.62-31.336 7.537-42.228 18.481l-18.273 38.504a63.773 63.773 0 0 0-0.311 6.305c0 9.62 2.201 18.702 6.028 26.869a55.19 55.19 0 0 0 20.293 3.841h328.381z m-71.543-94.103c2.439-2.668 5.914-4.371 9.814-4.371 3.9 0 7.375 1.703 9.814 4.371 2.167 2.372 3.523 5.499 3.523 8.965 0 7.365-5.971 13.336-13.336 13.336s-13.336-5.971-13.336-13.336c-0.002-3.466 1.353-6.594 3.521-8.965z m-198.842 2.551h171.217a6.414 6.414 0 0 1 0 12.828H400.442a6.414 6.414 0 0 1 0-12.828zM633.849 524.127H567.86l-0.05 0.073 6.398 10.212h52.419zM472.864 528.776l-2.636-4.649h-56.405l-6.953 10.285h62.086zM480.432 529.117l3.002 5.295h69.608l7.043-10.285h-76.193zM397.432 534.412h1.695l6.953-10.285h-14.854zM389.94 534.412l-6.206-10.286h-38.742c9.95 6.484 21.81 10.286 34.578 10.286h10.37zM692.732 378.117a74.16 74.16 0 0 1 28.705 16.397 49.31 49.31 0 0 0 4.572-14.966c0.307-2.22 0.52-4.467 0.52-6.768 0-21.53-13.771-39.811-32.961-46.647a60.39 60.39 0 0 1 5.468 25.137c0 9.445-2.215 18.568-6.304 26.847zM535.471 176.56h-33.193c-11.46 0-21.888 4.646-29.426 12.183a41.472 41.472 0 0 0-11.015 19.766h74.544c6.2 0 11.225 5.025 11.225 11.225 0 6.2-5.025 11.225-11.225 11.225H462.73c0.159 0.485 0.292 0.981 0.469 1.458a39.37 39.37 0 0 0 4.493 8.827h-16.831c-13.68 0-26.069 5.524-35.052 14.506-8.931 8.983-14.506 21.372-14.506 35.052 0 12.389 4.594 23.695 12.08 32.419h-1.24c-13.68 0-26.069 5.524-35.052 14.506a49.844 49.844 0 0 0-12.716 22.042c-1.132 4.153-1.791 8.501-1.791 13.01 0 0.695 0.076 1.371 0.104 2.059h305.795c5.252-6.757 8.102-14.974 8.102-23.569 0-21.137-17.197-38.334-38.334-38.334h-5.509c-6.198 0-11.225-5.025-11.225-11.225 0-5.504 3.962-10.083 9.189-11.041 4.62-9.201 11.701-30.685 4.923-44.717-0.84-1.738-1.985-3.271-3.27-4.709h-10.938a41.51 41.51 0 0 0 3.188-5.687c-6.236-3.021-14.558-4.598-25.075-4.598h-16.831a11.225 11.225 0 0 1-9.317-17.485 30.04 30.04 0 0 0 5.114-16.815c0-14.15-9.588-26.302-23.315-29.551a11.223 11.223 0 0 1-8.597-9.952c-1.374-15.82-9.378-30.009-21.686-40.616 8.532 11.724 13.458 25.591 13.458 40.506 0.002 6.764-1.031 13.269-2.889 19.515z m51.675 113.927c6.198 0 11.225 5.025 11.225 11.225s-5.027 11.225-11.225 11.225H416.791c-6.2 0-11.225-5.025-11.225-11.225s5.025-11.225 11.225-11.225h170.355z" fill="#F9E2B1" p-id="2376"></path><path d="M599.611 208.51c11.543 0.006 20.869 1.616 28.44 4.21-2.207-16.788-14.422-30.454-30.487-34.721a53.096 53.096 0 0 1 2.047 30.511zM654.206 292.61c11.483 3.127 21.609 9.559 29.329 18.186 2.716-6.124 4.276-12.869 4.276-19.994 0-3.42-0.347-6.759-1.007-9.985l-13.512-25.054c-4.045-4.045-8.812-7.345-14.053-9.804 3.771 16.031-0.084 33.803-5.033 46.651zM596.017 174.297c-3.166-22.73-17.858-42.318-38.893-54.301 5.244 8.457 8.966 17.766 10.804 27.661 12.6 5.049 22.527 14.667 28.089 26.64z" fill="#F9E2B1" p-id="2377"></path><path d="M578.669 715.382l-31.843-56.16-39.845 56.744 31.64 52.436zM473.963 661.245l29.396 48.718 39.966-56.917-28.875-50.925zM602.622 579.76l28.582 45.615 36.69-90.963h-33.43zM498.748 831.829l13.415 22.316 40.252-40.017c0.813-0.81 1.938-1.037 2.977-0.796l1.142-2.832-18.508-30.672-39.278 52.001zM560.816 534.412l-42.331 61.818 28.92 51.006 47.522-67.678-28.286-45.146zM514.963 590.02l38.079-55.608h-69.608zM550.906 653.411l31.975 56.394 30.617-40.533 14.741-36.547-29.617-47.269zM626.627 534.412h-52.419l24.718 39.45zM591.218 724.509l13.071-32.405-17.962 23.779zM542.19 774.316l17.345 28.745 28.618-70.952-6.038-10.649zM709.544 534.412H692.1L540.148 911.143c-4.189 10.385-11.971 18.209-21.539 22.368 10.452 19.691 41.391 18.046 50.709-5.056l3.946-9.783 154.988-384.259h-18.708zM358.285 534.412l15.218 37.905 20.77-30.724-4.333-7.181h-10.371zM496.526 878.733l13.595 33.862c3.696-1.728 7.168-4.797 9.205-9.849l5.85-14.505-14.295-23.78-14.355 14.272zM515.566 859.805l12.616 20.987 22.577-55.974zM466.339 661.026l-35.998-59.658-28.607 41.263 28.534 71.07zM426.709 595.349l-28.785-47.704-21.536 31.858 22.484 55.999zM435.356 726.374l26.05 43.335L499.33 715.7l-29.349-48.639-36.84 53.797zM510.929 595.911l-34.554-60.942-42.028 60.621 35.975 59.62zM468.956 534.412H406.87l-4.987 7.377 28.832 47.782zM398.231 535.737l0.896-1.325h-1.695zM534.457 773.914l-31.504-52.211-37.932 54.02 30.166 50.181zM507.479 858.801l-12.897-21.456-9.58 12.683 8.929 22.241zM457.375 775.451l-6.971-11.597 5.498 13.695zM491.02 831.42l-30.03-49.956-2.237 3.186 23.459 58.431z" fill="#F0D35C" p-id="2378"></path><path d="M547.606 219.734c0-6.2-5.025-11.225-11.225-11.225h-80.875c-6.2 0-11.225 5.025-11.225 11.225 0 6.2 5.025 11.225 11.225 11.225h80.875c6.2 0 11.225-5.025 11.225-11.225zM405.566 301.711c0 6.2 5.025 11.225 11.225 11.225h170.356c6.198 0 11.225-5.025 11.225-11.225s-5.027-11.225-11.225-11.225H416.791c-6.2 0.001-11.225 5.026-11.225 11.225z" fill="#231815" p-id="2379"></path><path d="M540.148 911.143L692.1 534.412l6.277-15.561a74.464 74.464 0 0 0 25.247-16.596c14.106-14.106 21.873-32.855 21.873-52.797 0-13.031-3.324-25.267-9.161-35.922a74.387 74.387 0 0 0-14.899-19.021 74.147 74.147 0 0 0-28.705-16.397c4.089-8.279 6.304-17.402 6.304-26.847 0-8.964-1.969-17.47-5.468-25.137a60.968 60.968 0 0 0-10.032-15.336c-7.72-8.628-17.846-15.059-29.329-18.186 4.949-12.848 8.804-30.62 5.034-46.651-0.722-3.072-1.695-6.087-3.026-8.984-4.05-8.814-12.134-18.764-28.163-24.256-7.571-2.594-16.896-4.203-28.44-4.21A53.077 53.077 0 0 0 597.564 178a52.757 52.757 0 0 0-1.547-3.701c-5.561-11.973-15.489-21.591-28.089-26.64-1.838-9.895-5.56-19.203-10.804-27.661-15.312-24.697-43.753-42.049-77.352-44.842-4.693-0.409-9.098 2.167-11.09 6.414a11.224 11.224 0 0 0 2.145 12.629c11.51 11.74 17.593 26.035 17.593 41.339 0 2.75-0.21 5.52-0.629 8.289h-24.23c-14.117 0-27.387 5.495-37.363 15.47-9.975 9.977-15.47 23.246-15.47 37.363 0 4.048 0.451 8.022 1.334 11.851-16.217 0.02-31.452 6.337-42.932 17.817-11.458 11.527-17.769 26.785-17.769 42.966a60.686 60.686 0 0 0 4.82 23.658c-9.632 2.831-18.461 8.047-25.766 15.353-11.46 11.524-17.772 26.784-17.772 42.966 0 7.372 1.376 14.542 3.898 21.279a60.281 60.281 0 0 0 1.945 4.585c-11.985 2.899-22.268 8.683-30.623 17.443-18.949 19.867-22.016 49.626-21.596 58.494l0.042 0.791c1.585 27.352 18.193 50.577 41.716 62.231 0.098 0.329 0.133 0.668 0.262 0.99l158.01 393.559a37.905 37.905 0 0 0 4.643 9.692c6.475 9.713 17.195 15.912 29.529 16.489 0.662 0.031 1.32 0.045 1.976 0.045a40.43 40.43 0 0 0 16.162-3.359c9.569-4.159 17.352-11.983 21.541-22.367z m15.244-97.811c-1.039-0.241-2.164-0.014-2.977 0.796l-40.252 40.017-13.415-22.316 39.278-52 18.508 30.672-1.142 2.831zM406.87 534.412l6.953-10.286h56.405l2.636 4.649-3.907 5.636-38.241 55.159-28.832-47.783 4.986-7.375z m-7.743 0l-0.895 1.324-0.799-1.324-6.206-10.286h14.854l-6.954 10.286z m77.248 0.557l34.554 60.942-40.607 59.299-35.975-59.62 42.028-60.621z m118.552 44.589l-47.522 67.678-28.92-51.006 42.332-61.818 3.042-4.442 2.783 4.442 28.285 45.146zM567.81 524.2l0.05-0.073h65.99l-7.222 10.286-27.701 39.45-24.718-39.45-6.399-10.213z m-20.984 135.022l31.843 56.161-40.048 53.019-31.64-52.436 39.845-56.744z m-43.467 50.741l-29.396-48.717 40.487-59.124 28.874 50.925-39.965 56.916z m49.683-175.551l-38.079 55.607-31.529-55.607-3.002-5.295 3.46-4.991h76.193l-7.043 10.286zM499.33 715.7l-37.924 54.009-26.051-43.336-2.801-4.659 0.586-0.856 36.84-53.797 29.35 48.639z m3.623 6.003l31.505 52.211-39.27 51.99-30.166-50.181 37.931-54.02z m56.582 81.358l-17.345-28.745 39.925-52.857 6.038 10.649-28.618 70.953z m31.683-78.552l-4.891-8.626 17.962-23.779-13.071 32.405z m22.28-55.237l-30.617 40.534-31.975-56.394 47.716-67.955 29.617 47.269-14.741 36.546z m54.396-134.86l-36.69 90.963-28.581-45.615 31.842-45.348 7.222-10.286h30.355l-4.148 10.286zM346.312 324.156c7.235-7.236 16.864-11.22 27.113-11.22h9.809c6.2 0 11.225-5.025 11.225-11.225s-5.025-11.225-11.225-11.225h-3.007c-4.164-6.3-6.417-13.669-6.417-21.193 0-10.21 3.992-19.848 11.218-27.116 7.233-7.235 16.862-11.218 27.114-11.218h16.831a11.224 11.224 0 0 0 9.281-17.537 28.512 28.512 0 0 1-3.254-6.43c-1.21-3.252-1.824-6.729-1.824-10.334 0-8.121 3.159-15.752 8.896-21.488 5.736-5.738 13.367-8.896 21.488-8.896h33.193c4.967 0 9.344-3.265 10.76-8.025 2.227-7.491 3.356-15.132 3.356-22.712 0-10.949-2.319-21.699-6.734-31.72 7.779 3.23 14.776 7.558 20.769 12.723 12.308 10.607 20.311 24.796 21.686 40.616a11.223 11.223 0 0 0 8.597 9.952c13.727 3.249 23.315 15.401 23.315 29.551 0 6.023-1.77 11.837-5.114 16.815a11.227 11.227 0 0 0 9.317 17.485h16.831c10.516 0 18.839 1.577 25.075 4.598 3.133 1.518 5.718 3.414 7.75 5.687 1.286 1.438 2.431 2.971 3.27 4.709 6.777 14.032-0.304 35.516-4.923 44.717-5.227 0.958-9.189 5.537-9.189 11.041 0 6.2 5.027 11.225 11.225 11.225h5.509c21.137 0 38.334 17.197 38.334 38.334 0 8.595-2.85 16.812-8.102 23.569H343.196a38.584 38.584 0 0 1-5.042-8.591 38.17 38.17 0 0 1-3.062-14.978c0-10.21 3.992-19.846 11.22-27.114z m-57.593 128.366l-0.027-0.506c-0.008-0.251 0.067-26.034 15.578-42.113 8.124-8.423 18.901-12.518 32.943-12.518 0.197 0 0.44-0.011 0.682-0.026 0.109 0.003 0.215 0.032 0.325 0.032 0.435 0 0.875-0.025 1.314-0.077 0.435-0.052 0.879-0.027 1.319-0.027h329.975c0.445 0.002 0.886-0.023 1.325 0.027 0.288 0.034 0.576 0.056 0.864 0.067a51.935 51.935 0 0 1 28.964 10.191c12.815 9.492 21.068 24.698 21.068 41.884 0 13.945-5.434 27.058-15.296 36.922-9.865 9.865-22.979 15.298-36.925 15.298H342.446a55.182 55.182 0 0 1-20.293-3.841c-18.702-7.379-32.237-24.66-33.434-45.313z m73.033 137.471l-26.445-65.867h48.426l6.206 10.286 4.333 7.181-20.769 30.724-11.433 16.912c-0.161 0.239-0.229 0.505-0.318 0.764z m16.851 41.971l-15.298-38.104c0.455 0.228 0.934 0.373 1.421 0.373a3.21 3.21 0 0 0 2.661-1.411l9.003-13.318 21.536-31.858 28.785 47.704-27.838 40.153-9.717 14.016-10.553-17.555z m23.131 10.667l28.607-41.263 35.998 59.658-36.071 52.676-1.347 1.967-36.141-60.122 8.954-12.916z m-8.084 26.813l31.285 52.044-6.55 9.565-24.735-61.609z m27.609 68.765l7.311-10.676 21.834 36.321 6.971 11.597-1.473 2.098-11.992 17.078-22.651-56.418z m48.647 121.165l-23.144-57.646 11.992-17.078 2.237-3.185 30.03 49.956-8.808 11.66-12.307 16.293z m2.789 6.947l12.307-16.293 9.58-12.683 12.898 21.456-13.548 13.469-12.135 12.064a3.183 3.183 0 0 0-0.933 2.331l-8.169-20.344z m46.632 36.425c-2.037 5.052-5.509 8.121-9.205 9.849-2.922 1.366-5.981 1.914-8.603 1.805-3.256-0.154-11.126-1.502-13.871-10.706-0.099-0.33-0.211-0.656-0.34-0.976l-5.616-13.987c0.038 0.042 0.051 0.097 0.091 0.138 0.626 0.631 1.45 0.946 2.274 0.946 0.817 0 1.635-0.31 2.261-0.933l10.208-10.148 14.356-14.272 14.295 23.78-5.85 14.504z m-3.761-42.941l35.193-34.987-22.577 55.974-12.616-20.987z" fill="#231815" p-id="2380"></path><path d="M400.442 422.953h171.217a6.414 6.414 0 0 0 0-12.828H400.442a6.414 6.414 0 0 0 0 12.828zM609.097 429.875c7.365 0 13.336-5.971 13.336-13.336 0-3.466-1.355-6.594-3.523-8.965-2.439-2.668-5.914-4.371-9.814-4.371-3.899 0-7.375 1.703-9.814 4.371-2.167 2.372-3.523 5.499-3.523 8.965 0.002 7.365 5.973 13.336 13.338 13.336z" fill="#FFFFFF" p-id="2381"></path></svg>